<svg width="28" height="26" viewBox="0 0 28 26" fill="none" xmlns="http://www.w3.org/2000/svg">
<g clip-path="url(#clip0_84_1363)" filter="url(#filter0_d_84_1363)">
<path d="M8.16683 11.917L12.8335 2.16699C13.7618 2.16699 14.652 2.5094 15.3084 3.1189C15.9647 3.72839 16.3335 4.55504 16.3335 5.41699V9.75033H22.9368C23.2751 9.74677 23.6101 9.81154 23.9187 9.94014C24.2273 10.0688 24.502 10.2581 24.724 10.4951C24.9459 10.7321 25.1098 11.0111 25.2041 11.3128C25.2984 11.6144 25.3209 11.9315 25.2702 12.242L23.6602 21.992C23.5758 22.5086 23.2932 22.9796 22.8644 23.318C22.4356 23.6564 21.8895 23.8396 21.3268 23.8337H8.16683M8.16683 11.917V23.8337M8.16683 11.917H4.66683C4.04799 11.917 3.4545 12.1453 3.01691 12.5516C2.57933 12.9579 2.3335 13.509 2.3335 14.0837V21.667C2.3335 22.2416 2.57933 22.7927 3.01691 23.1991C3.4545 23.6054 4.04799 23.8337 4.66683 23.8337H8.16683" stroke="#1E1E1E" stroke-width="4" stroke-linecap="round" stroke-linejoin="round"/>
</g>
<defs>
<filter id="filter0_d_84_1363" x="-4" y="0" width="36" height="34" filterUnits="userSpaceOnUse" color-interpolation-filters="sRGB">
<feFlood flood-opacity="0" result="BackgroundImageFix"/>
<feColorMatrix in="SourceAlpha" type="matrix" values="0 0 0 0 0 0 0 0 0 0 0 0 0 0 0 0 0 0 127 0" result="hardAlpha"/>
<feOffset dy="4"/>
<feGaussianBlur stdDeviation="2"/>
<feComposite in2="hardAlpha" operator="out"/>
<feColorMatrix type="matrix" values="0 0 0 0 0 0 0 0 0 0 0 0 0 0 0 0 0 0 0.25 0"/>
<feBlend mode="normal" in2="BackgroundImageFix" result="effect1_dropShadow_84_1363"/>
<feBlend mode="normal" in="SourceGraphic" in2="effect1_dropShadow_84_1363" result="shape"/>
</filter>
<clipPath id="clip0_84_1363">
<rect width="28" height="26" fill="white"/>
</clipPath>
</defs>
</svg>
