<svg width="64" height="73" viewBox="0 0 64 73" fill="none" xmlns="http://www.w3.org/2000/svg">
<path d="M60.0028 36.8776C60.0028 34.2848 59.8121 32.3928 59.3996 30.4307H32.5742V42.1332H48.3201C48.0028 45.0415 46.2885 49.4212 42.4789 52.3643L42.4255 52.7561L50.9072 60.0081L51.4948 60.0728C56.8915 54.5718 60.0028 46.478 60.0028 36.8776Z" fill="#4285F4"/>
<path d="M32.5726 67.7108C40.2868 67.7108 46.7629 64.9076 51.4931 60.0724L42.4773 52.3638C40.0646 54.2208 36.8265 55.5173 32.5726 55.5173C25.0171 55.5173 18.6045 50.0164 16.3186 42.4131L15.9835 42.4445L7.16416 49.9778L7.04883 50.3316C11.7472 60.6328 21.398 67.7108 32.5726 67.7108Z" fill="#34A853"/>
<path d="M16.3203 42.4138C15.7171 40.4517 15.368 38.3493 15.368 36.177C15.368 34.0045 15.7171 31.9023 16.2885 29.9402L16.2725 29.5224L7.34264 21.8682L7.05047 22.0215C5.11405 26.2962 4.00293 31.0965 4.00293 36.177C4.00293 41.2575 5.11405 46.0576 7.05047 50.3323L16.3203 42.4138Z" fill="#FBBC05"/>
<path d="M32.5728 16.8357C37.9378 16.8357 41.5567 19.3935 43.6203 21.5309L51.6838 12.8415C46.7316 7.76097 40.2869 4.64258 32.5728 4.64258C21.398 4.64258 11.7472 11.7202 7.04883 22.0213L16.2869 29.94C18.6046 22.3368 25.0172 16.8357 32.5728 16.8357Z" fill="#EB4335"/>
</svg>
