<svg width="81" height="82" viewBox="0 0 81 82" fill="none" xmlns="http://www.w3.org/2000/svg">
<rect x="3" y="-1.72754" width="74" height="81.088" rx="15" fill="url(#paint0_radial_102_409)"/>
<rect x="3" y="-1.72754" width="74" height="81.088" rx="15" fill="url(#paint1_radial_102_409)"/>
<rect x="3" y="-1.72754" width="74" height="81.088" rx="15" fill="url(#paint2_radial_102_409)"/>
<path d="M58.9 22.5736C58.9 25.0201 57.0868 27.0034 54.85 27.0034C52.6132 27.0034 50.8 25.0201 50.8 22.5736C50.8 20.1271 52.6132 18.1438 54.85 18.1438C57.0868 18.1438 58.9 20.1271 58.9 22.5736Z" fill="white"/>
<path fill-rule="evenodd" clip-rule="evenodd" d="M40 53.5822C47.4558 53.5822 53.5 46.9713 53.5 38.8162C53.5 30.6612 47.4558 24.0502 40 24.0502C32.5442 24.0502 26.5 30.6612 26.5 38.8162C26.5 46.9713 32.5442 53.5822 40 53.5822ZM40 47.6758C44.4735 47.6758 48.1 43.7092 48.1 38.8162C48.1 33.9232 44.4735 29.9566 40 29.9566C35.5265 29.9566 31.9 33.9232 31.9 38.8162C31.9 43.7092 35.5265 47.6758 40 47.6758Z" fill="white"/>
<path fill-rule="evenodd" clip-rule="evenodd" d="M13 37.6349C13 27.7112 13 22.7494 14.7657 18.959C16.3188 15.625 18.7971 12.9143 21.8454 11.2155C25.3107 9.28418 29.8472 9.28418 38.92 9.28418H41.08C50.1529 9.28418 54.6893 9.28418 58.1546 11.2155C61.2029 12.9143 63.6812 15.625 65.2343 18.959C67 22.7494 67 27.7112 67 37.6349V39.9975C67 49.9212 67 54.883 65.2343 58.6734C63.6812 62.0075 61.2029 64.7182 58.1546 66.417C54.6893 68.3482 50.1529 68.3482 41.08 68.3482H38.92C29.8472 68.3482 25.3107 68.3482 21.8454 66.417C18.7971 64.7182 16.3188 62.0075 14.7657 58.6734C13 54.883 13 49.9212 13 39.9975V37.6349ZM38.92 15.1906H41.08C45.7055 15.1906 48.8499 15.1952 51.2804 15.4124C53.6478 15.6239 54.8585 16.0074 55.7031 16.4781C57.7353 17.6106 59.3874 19.4178 60.4229 21.6405C60.8532 22.5643 61.2038 23.8885 61.3972 26.478C61.5958 29.1364 61.6 32.5756 61.6 37.6349V39.9975C61.6 45.0568 61.5958 48.4961 61.3972 51.1545C61.2038 53.7439 60.8532 55.0682 60.4229 55.9919C59.3874 58.2147 57.7353 60.0218 55.7031 61.1543C54.8585 61.625 53.6478 62.0085 51.2804 62.22C48.8499 62.4372 45.7055 62.4418 41.08 62.4418H38.92C34.2945 62.4418 31.1501 62.4372 28.7196 62.22C26.3522 62.0085 25.1415 61.625 24.2969 61.1543C22.2648 60.0218 20.6126 58.2147 19.5771 55.9919C19.1468 55.0682 18.7962 53.7439 18.6028 51.1545C18.4042 48.4961 18.4 45.0568 18.4 39.9975V37.6349C18.4 32.5756 18.4042 29.1364 18.6028 26.478C18.7962 23.8885 19.1468 22.5643 19.5771 21.6405C20.6126 19.4178 22.2648 17.6106 24.2969 16.4781C25.1415 16.0074 26.3522 15.6239 28.7196 15.4124C31.1501 15.1952 34.2945 15.1906 38.92 15.1906Z" fill="white"/>
<defs>
<radialGradient id="paint0_radial_102_409" cx="0" cy="0" r="1" gradientUnits="userSpaceOnUse" gradientTransform="translate(29.4286 59.0884) rotate(-57.7841) scale(71.8826 69.3419)">
<stop stop-color="#B13589"/>
<stop offset="0.79309" stop-color="#C62F94"/>
<stop offset="1" stop-color="#8A3AC8"/>
</radialGradient>
<radialGradient id="paint1_radial_102_409" cx="0" cy="0" r="1" gradientUnits="userSpaceOnUse" gradientTransform="translate(26.7857 82.2564) rotate(-67.0761) scale(64.4587 60.6158)">
<stop stop-color="#E0E8B7"/>
<stop offset="0.444662" stop-color="#FB8A2E"/>
<stop offset="0.71474" stop-color="#E2425C"/>
<stop offset="1" stop-color="#E2425C" stop-opacity="0"/>
</radialGradient>
<radialGradient id="paint2_radial_102_409" cx="0" cy="0" r="1" gradientUnits="userSpaceOnUse" gradientTransform="translate(-0.964281 1.16846) rotate(-8.8969) scale(102.989 24.0417)">
<stop offset="0.156701" stop-color="#406ADC"/>
<stop offset="0.467799" stop-color="#6A45BE"/>
<stop offset="1" stop-color="#6A45BE" stop-opacity="0"/>
</radialGradient>
</defs>
</svg>
