<svg width="38" height="34" viewBox="0 0 38 34" fill="none" xmlns="http://www.w3.org/2000/svg">
<path d="M6.33331 26.9163V24.083H9.49998V14.1663C9.49998 12.2066 10.1597 10.4712 11.4791 8.96009C12.7986 7.42537 14.5139 6.4219 16.625 5.94967V4.95801C16.625 4.36773 16.8493 3.8719 17.2979 3.47051C17.7729 3.04551 18.3403 2.83301 19 2.83301C19.6597 2.83301 20.2139 3.04551 20.6625 3.47051C21.1375 3.8719 21.375 4.36773 21.375 4.95801V5.94967C23.4861 6.4219 25.2014 7.42537 26.5208 8.96009C27.8403 10.4712 28.5 12.2066 28.5 14.1663V24.083H31.6666V26.9163H6.33331ZM19 31.1663C18.1291 31.1663 17.3771 30.8948 16.7437 30.3518C16.1368 29.7851 15.8333 29.1122 15.8333 28.333H22.1666C22.1666 29.1122 21.85 29.7851 21.2166 30.3518C20.6097 30.8948 19.8708 31.1663 19 31.1663ZM12.6666 24.083H25.3333V14.1663C25.3333 12.608 24.7132 11.274 23.4729 10.1643C22.2326 9.05453 20.7416 8.49967 19 8.49967C17.2583 8.49967 15.7673 9.05453 14.5271 10.1643C13.2868 11.274 12.6666 12.608 12.6666 14.1663V24.083Z" fill="#1D1B20"/>
</svg>
