<svg width="28" height="26" viewBox="0 0 28 26" fill="none" xmlns="http://www.w3.org/2000/svg">
<g clip-path="url(#clip0_84_1366)">
<path d="M19.8334 14.0831L15.1667 23.8331C14.2384 23.8331 13.3482 23.4907 12.6918 22.8812C12.0355 22.2717 11.6667 21.445 11.6667 20.5831V16.2497H5.06337C4.72514 16.2533 4.39013 16.1885 4.08154 16.0599C3.77294 15.9313 3.49815 15.7419 3.2762 15.5049C3.05425 15.2679 2.89045 14.9889 2.79614 14.6873C2.70183 14.3857 2.67928 14.0686 2.73004 13.7581L4.34004 4.00807C4.42441 3.49143 4.70703 3.0205 5.13581 2.68207C5.5646 2.34363 6.11065 2.1605 6.67337 2.16641H19.8334M19.8334 14.0831V2.16641M19.8334 14.0831H22.9484C23.6087 14.0939 24.2502 13.8793 24.7514 13.4799C25.2525 13.0804 25.5782 12.5241 25.6667 11.9164V4.33307C25.5782 3.72539 25.2525 3.16903 24.7514 2.76963C24.2502 2.37022 23.6087 2.15556 22.9484 2.16641H19.8334" stroke="#1E1E1E" stroke-width="4" stroke-linecap="round" stroke-linejoin="round"/>
</g>
<defs>
<clipPath id="clip0_84_1366">
<rect width="28" height="26" fill="white"/>
</clipPath>
</defs>
</svg>
